<svg xmlns="http://www.w3.org/2000/svg" xmlns:xlink="http://www.w3.org/1999/xlink" width="840" height="581.04"><rect width="840" height="581.04" rx="5" ry="5" class="a"/><svg y="0%" x="0%"><circle cx="20" cy="20" r="6" fill="#ff5f58"/><circle cx="40" cy="20" r="6" fill="#ffbd2e"/><circle cx="60" cy="20" r="6" fill="#18c132"/></svg><svg height="521.04" viewBox="0 0 80 52.104" width="800" x="15" xmlns="http://www.w3.org/2000/svg" xmlns:xlink="http://www.w3.org/1999/xlink" y="50"><style>@keyframes q{0%{transform:translateX(0)}96.7%{transform:translateX(-80px)}98.5%{transform:translateX(-240px)}99.3%{transform:translateX(-560px)}to{transform:translateX(-720px)}}.a{fill:#282d35}.f{fill:#b9c0cb}.f,.g,.h,.i{white-space:pre}.g{fill:#66c2cd;font-weight:700}.h,.i{fill:#dbab79}.i{fill:#b9c0cb;font-weight:700}.j,.k,.l,.m,.n{fill:#66c2cd;white-space:pre}.k,.l,.m,.n{fill:#d290e3}.l,.m,.n{fill:#a8cc8c}.m,.n{fill:#e88388}.n{fill:#b9bfca}</style><g font-family="Monaco,Consolas,Menlo,'Bitstream Vera Sans Mono','Powerline Symbols',monospace" font-size="1.67"><defs><symbol id="1"><text y="1.67" class="f">Reconnected</text><text x="12.024" y="1.67" class="f">to</text><text x="15.03" y="1.67" class="f">running</text><text x="23.046" y="1.67" class="f">workflow:</text><text x="33.066" y="1.67" class="f">examples/failing_workflow.yml</text></symbol><symbol id="2"><text x="5.01" y="1.67" class="g">Press</text><text x="11.022" y="1.67" class="g">Ctrl+X</text><text x="18.036" y="1.67" class="g">to</text><text x="21.042" y="1.67" class="g">stop</text><text x="26.052" y="1.67" class="g">the</text><text x="30.06" y="1.67" class="g">workflow</text><text x="39.078" y="1.67" class="g">or</text><text x="42.084" y="1.67" class="g">Ctrl+C</text><text x="49.098" y="1.67" class="g">to</text><text x="52.104" y="1.67" class="g">detach</text><text x="59.118" y="1.67" class="g">from</text><text x="64.128" y="1.67" class="g">the</text><text x="68.136" y="1.67" class="g">backend</text></symbol><symbol id="3"><text x="24.048" y="1.67" class="f">Waiting</text><text x="32.064" y="1.67" class="f">for</text><text x="36.072" y="1.67" class="f">workflow</text><text x="45.09" y="1.67" class="f">to</text><text x="48.096" y="1.67" class="f">start</text><text x="53.106" y="1.67" class="h">...</text></symbol><symbol id="4"><text x="33.066" y="1.67" class="f">Workflow</text><text x="42.084" y="1.67" class="f">nodes</text></symbol><symbol id="5"><text y="1.67" class="f">┏━━━━━━━━━━━━━━━━━━━┳━━━━━━━━━━━┳━━━━━━━━━━━┳━━━━━━━━━━┳━━━━━━━━━━┳━━━━━━━━━━━━┓</text></symbol><symbol id="6"><text y="1.67" class="f">┃</text><text x="2.004" y="1.67" class="i">Node</text><text x="20.04" y="1.67" class="f">┃</text><text x="22.044" y="1.67" class="i">Playbook</text><text x="32.064" y="1.67" class="f">┃</text><text x="34.068" y="1.67" class="i">Ref.</text><text x="44.088" y="1.67" class="f">┃</text><text x="46.092" y="1.67" class="i">Started</text><text x="55.11" y="1.67" class="f">┃</text><text x="57.114" y="1.67" class="i">Ended</text><text x="66.132" y="1.67" class="f">┃</text><text x="68.136" y="1.67" class="i">Status</text><text x="79.158" y="1.67" class="f">┃</text></symbol><symbol id="7"><text y="1.67" class="f">┡━━━━━━━━━━━━━━━━━━━╇━━━━━━━━━━━╇━━━━━━━━━━━╇━━━━━━━━━━╇━━━━━━━━━━╇━━━━━━━━━━━━┩</text></symbol><symbol id="8"><text y="1.67" class="f">│</text><text x="2.004" y="1.67" class="j">shutdown-linux</text><text x="20.04" y="1.67" class="f">│</text><text x="22.044" y="1.67" class="k">/app/exa…</text><text x="32.064" y="1.67" class="f">│</text><text x="34.068" y="1.67" class="j">TEAM</text><text x="44.088" y="1.67" class="f">│</text><text x="46.092" y="1.67" class="l">08:01:38</text><text x="55.11" y="1.67" class="f">│</text><text x="57.114" y="1.67" class="l">08:01:44</text><text x="66.132" y="1.67" class="f">│</text><text x="68.136" y="1.67" class="m">failed</text><text x="79.158" y="1.67" class="f">│</text></symbol><symbol id="9"><text y="1.67" class="f">│</text><text x="20.04" y="1.67" class="f">│</text><text x="32.064" y="1.67" class="f">│</text><text x="34.068" y="1.67" class="j">LINUX</text><text x="44.088" y="1.67" class="f">│</text><text x="55.11" y="1.67" class="f">│</text><text x="66.132" y="1.67" class="f">│</text><text x="79.158" y="1.67" class="f">│</text></symbol><symbol id="10"><text y="1.67" class="f">│</text><text x="2.004" y="1.67" class="j">shutdown-oracle</text><text x="20.04" y="1.67" class="f">│</text><text x="22.044" y="1.67" class="k">/app/exa…</text><text x="32.064" y="1.67" class="f">│</text><text x="34.068" y="1.67" class="j">TEAM</text><text x="44.088" y="1.67" class="f">│</text><text x="46.092" y="1.67" class="l">08:01:38</text><text x="55.11" y="1.67" class="f">│</text><text x="57.114" y="1.67" class="l">08:01:44</text><text x="66.132" y="1.67" class="f">│</text><text x="68.136" y="1.67" class="m">failed</text><text x="79.158" y="1.67" class="f">│</text></symbol><symbol id="11"><text y="1.67" class="f">│</text><text x="20.04" y="1.67" class="f">│</text><text x="32.064" y="1.67" class="f">│</text><text x="34.068" y="1.67" class="j">ORACLE</text><text x="44.088" y="1.67" class="f">│</text><text x="55.11" y="1.67" class="f">│</text><text x="66.132" y="1.67" class="f">│</text><text x="79.158" y="1.67" class="f">│</text></symbol><symbol id="12"><text y="1.67" class="f">│</text><text x="2.004" y="1.67" class="j">other_stuff_1</text><text x="20.04" y="1.67" class="f">│</text><text x="22.044" y="1.67" class="k">/app/exa…</text><text x="32.064" y="1.67" class="f">│</text><text x="34.068" y="1.67" class="j">FIRST</text><text x="44.088" y="1.67" class="f">│</text><text x="46.092" y="1.67" class="l">08:01:38</text><text x="55.11" y="1.67" class="f">│</text><text x="57.114" y="1.67" class="l">08:01:45</text><text x="66.132" y="1.67" class="f">│</text><text x="68.136" y="1.67" class="m">failed</text><text x="79.158" y="1.67" class="f">│</text></symbol><symbol id="13"><text y="1.67" class="f">│</text><text x="20.04" y="1.67" class="f">│</text><text x="32.064" y="1.67" class="f">│</text><text x="34.068" y="1.67" class="j">LEVEL</text><text x="44.088" y="1.67" class="f">│</text><text x="55.11" y="1.67" class="f">│</text><text x="66.132" y="1.67" class="f">│</text><text x="79.158" y="1.67" class="f">│</text></symbol><symbol id="14"><text y="1.67" class="f">│</text><text x="20.04" y="1.67" class="f">│</text><text x="32.064" y="1.67" class="f">│</text><text x="34.068" y="1.67" class="j">SUPPORT</text><text x="44.088" y="1.67" class="f">│</text><text x="55.11" y="1.67" class="f">│</text><text x="66.132" y="1.67" class="f">│</text><text x="79.158" y="1.67" class="f">│</text></symbol><symbol id="15"><text y="1.67" class="f">│</text><text x="2.004" y="1.67" class="j">other_stuff_2</text><text x="20.04" y="1.67" class="f">│</text><text x="22.044" y="1.67" class="k">/app/exa…</text><text x="32.064" y="1.67" class="f">│</text><text x="34.068" y="1.67" class="j">TEAM</text><text x="39.078" y="1.67" class="j">IAM</text><text x="44.088" y="1.67" class="f">│</text><text x="55.11" y="1.67" class="f">│</text><text x="66.132" y="1.67" class="f">│</text><text x="68.136" y="1.67" class="n">not</text><text x="79.158" y="1.67" class="f">│</text></symbol><symbol id="16"><text y="1.67" class="f">│</text><text x="20.04" y="1.67" class="f">│</text><text x="32.064" y="1.67" class="f">│</text><text x="44.088" y="1.67" class="f">│</text><text x="55.11" y="1.67" class="f">│</text><text x="66.132" y="1.67" class="f">│</text><text x="68.136" y="1.67" class="n">started</text><text x="79.158" y="1.67" class="f">│</text></symbol><symbol id="17"><text y="1.67" class="f">│</text><text x="2.004" y="1.67" class="j">last</text><text x="20.04" y="1.67" class="f">│</text><text x="22.044" y="1.67" class="k">/app/exa…</text><text x="32.064" y="1.67" class="f">│</text><text x="44.088" y="1.67" class="f">│</text><text x="55.11" y="1.67" class="f">│</text><text x="66.132" y="1.67" class="f">│</text><text x="68.136" y="1.67" class="n">not</text><text x="79.158" y="1.67" class="f">│</text></symbol><symbol id="18"><text y="1.67" class="f">└───────────────────┴───────────┴───────────┴──────────┴──────────┴────────────┘</text></symbol><symbol id="19"><text x="34.068" y="1.67" class="f">Running</text><text x="42.084" y="1.67" class="h">...</text></symbol><symbol id="20"><text x="33.066" y="1.67" class="f">Running</text><text x="41.082" y="1.67" class="f">recap</text></symbol><symbol id="a"><path fill="transparent" d="M0 0h80v24H0z"/></symbol><symbol id="b"><path fill="#6f7683" d="M0 0h1.102v2.171H0z"/></symbol></defs><path class="a" d="M0 0h80v52.104H0z"/><g style="animation-duration:4.312547s;animation-iteration-count:infinite;animation-name:q;animation-timing-function:steps(1,end)"><svg width="800"><svg><use xlink:href="#a"/><use xlink:href="#b" x="-.004"/></svg><svg x="80"><use xlink:href="#a"/><use xlink:href="#b" x="-.004" y="2.146"/><use xlink:href="#1"/></svg><svg x="160"><use xlink:href="#a"/><use xlink:href="#b" x="-.004" y="8.659"/><use xlink:href="#1"/><use xlink:href="#2" y="4.342"/></svg><svg x="240"><use xlink:href="#a"/><use xlink:href="#b" x="-.004" y="10.83"/><use xlink:href="#1"/><use xlink:href="#2" y="4.342"/><use xlink:href="#3" y="8.684"/></svg><svg x="320"><use xlink:href="#a"/><use xlink:href="#b" x="-.004" y="26.027"/><use xlink:href="#1"/><use xlink:href="#2" y="4.342"/><use xlink:href="#3" y="8.684"/><use xlink:href="#4" y="10.855"/><use xlink:href="#5" y="13.026"/><use xlink:href="#6" y="15.197"/><use xlink:href="#7" y="17.368"/><use xlink:href="#8" y="19.539"/><use xlink:href="#9" y="21.71"/><use xlink:href="#10" y="23.881"/></svg><svg x="400"><use xlink:href="#a"/><use xlink:href="#b" x="-.004" y="45.566"/><use xlink:href="#1"/><use xlink:href="#2" y="4.342"/><use xlink:href="#3" y="8.684"/><use xlink:href="#4" y="10.855"/><use xlink:href="#5" y="13.026"/><use xlink:href="#6" y="15.197"/><use xlink:href="#7" y="17.368"/><use xlink:href="#8" y="19.539"/><use xlink:href="#9" y="21.71"/><use xlink:href="#10" y="23.881"/><use xlink:href="#11" y="26.052"/><use xlink:href="#12" y="28.223"/><use xlink:href="#13" y="30.394"/><use xlink:href="#14" y="32.565"/><use xlink:href="#15" y="34.736"/><use xlink:href="#16" y="36.907"/><use xlink:href="#17" y="39.078"/><use xlink:href="#16" y="41.249"/><use xlink:href="#18" y="43.42"/></svg><svg x="480"><use xlink:href="#a"/><use xlink:href="#b" x="-.004" y="47.737"/><use xlink:href="#1"/><use xlink:href="#2" y="4.342"/><use xlink:href="#3" y="8.684"/><use xlink:href="#4" y="10.855"/><use xlink:href="#5" y="13.026"/><use xlink:href="#6" y="15.197"/><use xlink:href="#7" y="17.368"/><use xlink:href="#8" y="19.539"/><use xlink:href="#9" y="21.71"/><use xlink:href="#10" y="23.881"/><use xlink:href="#11" y="26.052"/><use xlink:href="#12" y="28.223"/><use xlink:href="#13" y="30.394"/><use xlink:href="#14" y="32.565"/><use xlink:href="#15" y="34.736"/><use xlink:href="#16" y="36.907"/><use xlink:href="#17" y="39.078"/><use xlink:href="#16" y="41.249"/><use xlink:href="#18" y="43.42"/></svg><svg x="560"><use xlink:href="#a"/><use xlink:href="#b" x="-.004" y="49.908"/><use xlink:href="#1"/><use xlink:href="#2" y="4.342"/><use xlink:href="#3" y="8.684"/><use xlink:href="#4" y="10.855"/><use xlink:href="#5" y="13.026"/><use xlink:href="#6" y="15.197"/><use xlink:href="#7" y="17.368"/><use xlink:href="#8" y="19.539"/><use xlink:href="#9" y="21.71"/><use xlink:href="#10" y="23.881"/><use xlink:href="#11" y="26.052"/><use xlink:href="#12" y="28.223"/><use xlink:href="#13" y="30.394"/><use xlink:href="#14" y="32.565"/><use xlink:href="#15" y="34.736"/><use xlink:href="#16" y="36.907"/><use xlink:href="#17" y="39.078"/><use xlink:href="#16" y="41.249"/><use xlink:href="#18" y="43.42"/><use xlink:href="#19" y="47.762"/></svg><svg x="640"><use xlink:href="#a"/><use xlink:href="#b" x="-.004" y="49.908"/><use xlink:href="#15"/><use xlink:href="#16" y="2.171"/><use xlink:href="#17" y="4.342"/><use xlink:href="#16" y="6.513"/><use xlink:href="#18" y="8.684"/><use xlink:href="#19" y="13.026"/><use xlink:href="#20" y="15.197"/><use xlink:href="#5" y="17.368"/><use xlink:href="#6" y="19.539"/><use xlink:href="#7" y="21.71"/><use xlink:href="#8" y="23.881"/><use xlink:href="#9" y="26.052"/><use xlink:href="#10" y="28.223"/><use xlink:href="#11" y="30.394"/><use xlink:href="#12" y="32.565"/><use xlink:href="#13" y="34.736"/><use xlink:href="#14" y="36.907"/><use xlink:href="#15" y="39.078"/><use xlink:href="#16" y="41.249"/><use xlink:href="#17" y="43.42"/><use xlink:href="#16" y="45.591"/><use xlink:href="#18" y="47.762"/></svg><svg x="720"><use xlink:href="#a"/><use xlink:href="#b" x="-.004" y="49.908"/><use xlink:href="#16"/><use xlink:href="#17" y="2.171"/><use xlink:href="#16" y="4.342"/><use xlink:href="#18" y="6.513"/><use xlink:href="#19" y="10.855"/><use xlink:href="#20" y="13.026"/><use xlink:href="#5" y="15.197"/><use xlink:href="#6" y="17.368"/><use xlink:href="#7" y="19.539"/><use xlink:href="#8" y="21.71"/><use xlink:href="#9" y="23.881"/><use xlink:href="#10" y="26.052"/><use xlink:href="#11" y="28.223"/><use xlink:href="#12" y="30.394"/><use xlink:href="#13" y="32.565"/><use xlink:href="#14" y="34.736"/><use xlink:href="#15" y="36.907"/><use xlink:href="#16" y="39.078"/><use xlink:href="#17" y="41.249"/><use xlink:href="#16" y="43.42"/><use xlink:href="#18" y="45.591"/></svg></svg></g></g></svg></svg>